<?xml version="1.0" encoding="utf-8"?>
<!-- Generator: Adobe Illustrator 15.0.0, SVG Export Plug-In . SVG Version: 6.00 Build 0)  -->
<!DOCTYPE svg PUBLIC "-//W3C//DTD SVG 1.1//EN" "http://www.w3.org/Graphics/SVG/1.1/DTD/svg11.dtd">
<svg version="1.1" id="Layer_1" xmlns="http://www.w3.org/2000/svg" xmlns:xlink="http://www.w3.org/1999/xlink" x="0px" y="0px"
	 width="200px" height="100px" viewBox="0 0 200 100" enable-background="new 0 0 200 100" xml:space="preserve">
<g>
	<g>
		<path fill="#FFFFFF" d="M48.455,7.583c-0.213,0.921-0.466,2.288-0.761,4.099c-0.295,1.812-0.586,4.014-0.872,6.609
			c-0.354,3.154-0.686,6.711-0.994,10.672c-0.311,3.961-0.571,7.932-0.781,11.912c-0.211,3.982-0.358,7.769-0.442,11.362
			c-0.084,3.596-0.061,6.602,0.071,9.022c0.046,0.857,0.1,1.537,0.16,2.04c0.06,0.501,0.134,0.965,0.223,1.39
			c0.088,0.426,0.193,0.836,0.312,1.234c0.121,0.397,0.246,0.897,0.376,1.497c-0.85,0.046-1.545-0.067-2.083-0.342
			c-0.54-0.274-0.974-0.743-1.305-1.407c-0.332-0.666-0.575-1.524-0.729-2.578c-0.156-1.053-0.276-2.361-0.36-3.925
			c-0.328-6.05-0.179-12.516,0.449-19.402c0.626-6.885,1.375-14.093,2.246-21.624c-0.7,1.605-1.421,3.565-2.165,5.881
			s-1.468,4.808-2.176,7.476c-0.708,2.668-1.401,5.437-2.082,8.304c-0.681,2.869-1.301,5.634-1.861,8.293
			c-0.561,2.661-1.066,5.14-1.515,7.439c-0.449,2.301-0.796,4.214-1.041,5.745c-0.191,0.112-0.318,0.195-0.38,0.247
			c-0.063,0.054-0.175,0.086-0.339,0.095c-0.882,0.049-1.506-0.726-1.871-2.326c-0.365-1.596-0.627-3.856-0.785-6.782
			c-0.112-2.066-0.205-4.54-0.279-7.417c-0.074-2.878-0.142-5.807-0.205-8.787s-0.13-5.883-0.202-8.712
			c-0.071-2.827-0.16-5.25-0.27-7.266c-0.055-1.008-0.107-1.826-0.158-2.457c-0.051-0.629-0.107-1.219-0.17-1.773
			c-2.107,9.519-3.855,17.629-5.245,24.328c-1.391,6.701-2.586,12.162-3.586,16.388s-1.897,7.321-2.692,9.285
			c-0.795,1.964-1.633,2.972-2.516,3.019c0.161-0.667,0.608-2.547,1.341-5.647c0.733-3.098,1.666-7.066,2.797-11.908
			c1.13-4.839,2.429-10.371,3.894-16.594c1.465-6.223,3.008-12.841,4.627-19.857c0.079-0.358,0.16-0.83,0.243-1.417
			c0.082-0.584,0.109-1.155,0.079-1.711c-0.03-0.554-0.162-1.015-0.395-1.381s-0.692-0.531-1.378-0.494
			c-1.046,0.057-1.93,0.535-2.651,1.433c-0.722,0.9-1.291,2.03-1.709,3.393s-0.705,2.871-0.861,4.522
			c-0.156,1.652-0.193,3.233-0.112,4.747c0.027,0.504,0.059,0.933,0.095,1.284c0.035,0.353,0.079,0.705,0.131,1.055
			c-0.458,0.024-0.862-0.155-1.21-0.542c-0.348-0.385-0.646-0.887-0.892-1.506c-0.247-0.618-0.438-1.29-0.577-2.017
			c-0.137-0.725-0.223-1.391-0.254-1.996c-0.091-1.663,0.116-3.28,0.621-4.851c0.505-1.569,1.192-2.958,2.061-4.169
			c0.868-1.21,1.847-2.198,2.935-2.966c1.09-0.767,2.173-1.18,3.251-1.238c0.784-0.043,1.5,0.159,2.146,0.604
			c0.647,0.447,1.217,1.287,1.71,2.523c0.493,1.238,0.905,2.947,1.236,5.129c0.331,2.182,0.59,4.986,0.775,8.414
			c0.129,2.371,0.222,4.855,0.28,7.456c0.059,2.602,0.094,5.216,0.106,7.844c0.011,2.629,0.026,5.182,0.046,7.658
			c0.019,2.478,0.07,4.774,0.152,6.895c0.284-2.596,0.734-5.35,1.346-8.265c0.612-2.916,1.29-5.834,2.033-8.757
			c0.742-2.922,1.538-5.784,2.386-8.586c0.847-2.803,1.651-5.374,2.408-7.716c0.759-2.341,1.45-4.39,2.076-6.143
			c0.626-1.752,1.096-3.067,1.409-3.945c0.403-1.032,0.745-1.823,1.027-2.369c0.282-0.547,0.7-0.834,1.255-0.864
			C47.315,7.113,47.848,7.262,48.455,7.583z"/>
		<path fill="#FFFFFF" d="M72.859,47.059c-0.082,0.281-0.172,0.562-0.263,0.834c-1.168,3.702-2.373,6.498-3.613,8.402
			c-1.331,2.042-2.436,3.095-3.323,3.139c-0.58,0.037-1.033-0.308-1.331-1.024c-0.299-0.717-0.471-1.452-0.507-2.215
			c-0.055-0.905,0.045-1.886,0.281-2.929c0.235-1.053,0.506-2.08,0.814-3.085c0.308-0.999,0.588-1.915,0.833-2.731
			c0.253-0.826,0.362-1.461,0.344-1.915c-0.018-0.308-0.108-0.553-0.263-0.744c-0.162-0.2-0.353-0.363-0.57-0.499
			c-0.217-0.146-0.452-0.254-0.679-0.345c-0.235-0.091-0.426-0.155-0.552-0.2c-0.516,1.397-1.159,3.058-1.919,4.999
			c-0.761,1.933-1.576,3.793-2.427,5.553c-0.86,1.77-1.72,3.284-2.607,4.537c-0.878,1.27-1.693,1.914-2.444,1.96
			c-0.888,0.045-1.376-0.917-1.485-2.877c-0.063-1.216,0-2.595,0.19-4.146c0.199-1.55,0.507-3.14,0.923-4.754
			c0.417-1.615,0.915-3.194,1.485-4.745c0.57-1.551,1.204-2.931,1.892-4.155c0.688-1.225,1.403-2.214,2.146-2.967
			c0.751-0.745,1.512-1.144,2.3-1.189c0.878-0.045,1.521,0.336,1.928,1.152c0.407,0.808,0.643,1.796,0.697,2.958
			c0.054,0.853,0.018,1.742-0.1,2.659c0.725-0.037,1.287-0.299,1.703-0.78c0.417-0.472,0.597-1.343,0.525-2.604
			c-0.091-1.715-0.589-3.066-1.494-4.047c-0.906-0.988-2.001-1.451-3.269-1.378c-1.078,0.054-2.137,0.48-3.178,1.27
			c-1.042,0.79-2.028,1.815-2.952,3.085c-0.933,1.261-1.802,2.713-2.599,4.346c-0.797,1.634-1.466,3.339-2.028,5.118
			s-0.978,3.53-1.268,5.263c-0.281,1.733-0.381,3.355-0.299,4.872c0.118,2.114,0.543,3.674,1.286,4.673
			c0.742,0.989,1.639,1.461,2.68,1.407c1.204-0.065,2.345-0.863,3.413-2.388c1.06-1.523,2.237-3.783,3.513-6.786
			c-0.055,0.861-0.063,1.596-0.027,2.195c0.073,1.314,0.425,2.514,1.05,3.583c0.635,1.08,1.558,1.589,2.762,1.526
			c0.887-0.056,1.766-0.428,2.644-1.135c0.878-0.709,1.72-1.688,2.517-2.94c0.806-1.26,1.53-2.749,2.191-4.482
			c0.172-0.463,0.344-0.925,0.498-1.415c0.434-1.343,0.806-2.776,1.114-4.318L72.859,47.059z"/>
		<path fill="#FFFFFF" d="M72.859,47.059c-0.082,0.281-0.172,0.562-0.263,0.834c-0.036,0.318-0.072,0.644-0.109,0.971
			c-0.118,1.188-0.19,2.269-0.208,3.249c0.434-1.343,0.806-2.776,1.114-4.318L72.859,47.059z M94.354,45.915
			c-0.272,1.071-0.508,1.951-0.716,2.668l0.507,1.261c0.109-0.327,0.236-0.708,0.353-1.134c0.01-0.009,0.01-0.018,0.01-0.018
			c0.19-0.69,0.353-1.406,0.499-2.15L94.354,45.915z"/>
		<path fill="#FFFFFF" d="M94.354,45.915c-0.272,1.071-0.508,1.951-0.716,2.668l0.507,1.261c0.109-0.327,0.236-0.708,0.353-1.134
			c0.01-0.009,0.01-0.018,0.01-0.018c0.19-0.69,0.353-1.406,0.499-2.15L94.354,45.915z M111.547,45.181
			c-0.234,1.125-0.633,2.368-1.176,3.711c-0.064,0.163-0.137,0.318-0.209,0.48c-0.027,0.118-0.045,0.245-0.064,0.363
			c-0.18,1.08-0.289,2.114-0.316,3.112c0.326-0.645,0.625-1.326,0.916-2.042c0.643-1.633,1.158-3.257,1.521-4.899L111.547,45.181z"
			/>
		<path fill="#FFFFFF" d="M94.327,45.888l0.028,0.027c-0.272,1.071-0.508,1.951-0.716,2.668l0.507,1.261
			c0.109-0.327,0.236-0.708,0.353-1.134c-0.315,1.261-0.687,2.45-1.121,3.565c-0.68,1.734-1.431,3.23-2.246,4.483
			c-0.815,1.261-1.675,2.259-2.562,2.985c-0.897,0.732-1.784,1.124-2.671,1.169c-1.304,0.072-2.227-0.418-2.779-1.479
			c-0.553-1.06-0.869-2.366-0.951-3.928c-0.036-0.607-0.036-1.226,0-1.86c0.027-0.635,0.073-1.278,0.136-1.941
			c-0.389,1.288-0.796,2.504-1.222,3.666c-0.434,1.16-0.896,2.187-1.385,3.076c-0.489,0.889-1.014,1.597-1.557,2.131
			c-0.543,0.535-1.123,0.816-1.748,0.854c-1.114,0.063-2.046-0.644-2.789-2.123c-0.76-1.479-1.186-3.249-1.303-5.316
			c-0.027-0.572-0.036-1.197-0.018-1.879c0.434-1.343,0.806-2.776,1.114-4.318l-0.534-0.735c-0.082,0.281-0.172,0.562-0.263,0.834
			c0.19-1.651,0.425-3.23,0.715-4.727c0.344-1.788,0.743-3.33,1.177-4.609c0.435-1.288,0.833-1.941,1.195-1.969
			c0.163-0.009,0.453,0.118,0.86,0.372c0.408,0.254,0.752,0.608,1.033,1.043c-0.227,0.671-0.489,1.606-0.806,2.812
			c-0.308,1.207-0.598,2.522-0.86,3.956c-0.272,1.433-0.489,2.903-0.652,4.437c-0.163,1.524-0.208,2.912-0.136,4.172
			c0.018,0.311,0.055,0.745,0.118,1.326c0.063,0.571,0.172,1.143,0.317,1.687c0.136,0.544,0.344,1.018,0.616,1.407
			c0.263,0.39,0.598,0.572,0.987,0.554c0.752-0.037,1.512-0.845,2.282-2.396c0.76-1.56,1.502-3.42,2.2-5.579
			c0.707-2.169,1.34-4.392,1.929-6.669c0.58-2.287,1.059-4.137,1.439-5.58c0.136,0.045,0.335,0.1,0.598,0.155
			c0.271,0.063,0.534,0.163,0.806,0.299c0.272,0.136,0.507,0.326,0.715,0.571c0.208,0.245,0.326,0.508,0.344,0.816
			c0.009,0.2-0.127,0.889-0.408,2.069c-0.281,1.179-0.58,2.567-0.905,4.182c-0.326,1.606-0.606,3.267-0.86,4.972
			c-0.253,1.716-0.344,3.195-0.271,4.455c0.045,0.908,0.208,1.634,0.48,2.178c0.281,0.536,0.715,0.789,1.294,0.763
			c0.525-0.027,1.114-0.336,1.775-0.936c0.652-0.588,1.331-1.424,2.028-2.495c0.688-1.078,1.368-2.385,2.019-3.946
			C93.276,49.663,93.846,47.893,94.327,45.888z"/>
		<path fill="#FFFFFF" d="M133.143,44.128l-0.246-0.336c-0.09,0.3-0.18,0.59-0.271,0.88c0,0,0,0,0,0.009
			c-0.371,1.162-0.742,2.232-1.113,3.212v0.009c-0.053,0.626-0.062,1.352-0.018,2.187c0.018,0.281,0.037,0.571,0.064,0.852
			c0.09-0.217,0.18-0.444,0.271-0.68c0.66-1.725,1.195-3.638,1.602-5.734L133.143,44.128z M110.371,48.892
			c-0.064,0.163-0.137,0.318-0.209,0.48c-0.027,0.118-0.045,0.245-0.064,0.363c-0.18,1.08-0.289,2.114-0.316,3.112
			c0.326-0.645,0.625-1.326,0.916-2.042c0.643-1.633,1.158-3.257,1.521-4.899l-0.672-0.726
			C111.312,46.306,110.914,47.549,110.371,48.892z"/>
		<path fill="#FFFFFF" d="M131.559,50.941c-0.59,1.453-1.232,2.714-1.92,3.804c-0.807,1.26-1.648,2.24-2.527,2.938
			c-0.877,0.707-1.756,1.089-2.635,1.134c-1.213,0.063-2.137-0.443-2.762-1.515c-0.633-1.08-0.986-2.277-1.059-3.585
			c-0.027-0.606-0.018-1.342,0.027-2.204c-1.275,3.003-2.445,5.262-3.514,6.788c-1.068,1.521-2.199,2.322-3.414,2.385
			c-1.041,0.054-1.936-0.408-2.68-1.407c-0.742-0.996-1.168-2.548-1.285-4.672c-0.027-0.572-0.037-1.152-0.01-1.76
			c0.326-0.645,0.625-1.326,0.916-2.042c0.643-1.633,1.158-3.257,1.521-4.899l-0.672-0.726c-0.234,1.125-0.633,2.368-1.176,3.711
			c-0.064,0.163-0.137,0.318-0.209,0.48c0.271-1.615,0.67-3.248,1.195-4.899c0.562-1.779,1.24-3.475,2.037-5.118
			c0.797-1.633,1.656-3.084,2.59-4.346c0.934-1.271,1.91-2.295,2.951-3.085c1.041-0.789,2.102-1.215,3.178-1.27
			c1.277-0.073,2.363,0.39,3.27,1.379c0.904,0.989,1.402,2.332,1.494,4.046c0.072,1.261-0.1,2.132-0.516,2.613
			c-0.418,0.472-0.988,0.734-1.703,0.771c0.107-0.917,0.145-1.806,0.1-2.658c-0.064-1.162-0.299-2.151-0.707-2.958
			c-0.398-0.816-1.041-1.198-1.928-1.143c-0.779,0.036-1.549,0.435-2.291,1.179c-0.752,0.753-1.467,1.742-2.154,2.967
			c-0.688,1.225-1.312,2.613-1.883,4.156c-0.58,1.551-1.068,3.129-1.496,4.745c-0.416,1.614-0.723,3.203-0.914,4.754
			c-0.197,1.552-0.262,2.94-0.197,4.146c0.107,1.968,0.605,2.92,1.484,2.876c0.75-0.037,1.566-0.69,2.453-1.951
			c0.879-1.261,1.748-2.775,2.598-4.546c0.861-1.76,1.668-3.61,2.428-5.552c0.77-1.942,1.404-3.602,1.92-4.999
			c0.135,0.045,0.316,0.108,0.551,0.2c0.236,0.09,0.463,0.199,0.68,0.345c0.227,0.136,0.416,0.308,0.57,0.499
			c0.164,0.19,0.244,0.444,0.264,0.744c0.027,0.454-0.092,1.088-0.336,1.915c-0.254,0.825-0.533,1.732-0.842,2.74
			c-0.307,0.998-0.58,2.023-0.814,3.075c-0.236,1.053-0.336,2.033-0.281,2.932c0.037,0.763,0.209,1.496,0.508,2.214
			c0.307,0.717,0.75,1.061,1.34,1.025c0.877-0.047,1.982-1.09,3.314-3.14c0.84-1.297,1.674-2.995,2.488-5.127
			c-0.053,0.626-0.062,1.352-0.018,2.187C131.512,50.37,131.531,50.661,131.559,50.941z"/>
		<path fill="#FFFFFF" d="M110.098,49.735c-0.18,1.08-0.289,2.114-0.316,3.112c-0.414,0.835-0.859,1.605-1.34,2.322
			c-0.842,1.288-1.756,2.35-2.725,3.186c-0.969,0.833-1.973,1.288-3.023,1.342c-1.105,0.063-2.011-0.345-2.69-1.216
			c-0.688-0.88-1.068-2.042-1.149-3.501c-0.063-1.117,0.009-2.296,0.227-3.54c0.207-1.251,0.452-2.503,0.725-3.756
			c0.279-1.261,0.525-2.486,0.742-3.684c0.208-1.197,0.289-2.305,0.234-3.312c-0.045-0.808-0.162-1.497-0.362-2.068
			c-0.189-0.572-0.442-1.062-0.741-1.479c-0.299-0.409-0.625-0.771-0.97-1.08c-0.345-0.308-0.67-0.635-0.986-0.97
			c-0.308,1.533-0.616,3.03-0.933,4.482c-0.316,1.46-0.634,2.831-0.958,4.11c-0.327,1.289-0.625,2.468-0.915,3.539
			c-0.145,0.544-0.272,1.034-0.408,1.47c0.19-0.69,0.353-1.406,0.499-2.15l-0.652-0.627c0.226-0.925,0.479-1.986,0.759-3.175
			c0.598-2.559,1.168-5.471,1.711-8.737c-0.353-0.49-0.543-1.08-0.588-1.787c-0.035-0.763,0.009-1.452,0.136-2.096
			c0.128-0.635,0.299-1.188,0.498-1.661c0.209-0.463,0.417-0.826,0.634-1.098c0.218-0.263,0.389-0.399,0.517-0.399
			c0.362-0.027,0.579,0.209,0.651,0.681c0.072,0.48,0.118,0.843,0.137,1.098c0.008,0.146-0.01,0.363-0.037,0.644
			c-0.037,0.281-0.09,0.572-0.153,0.88c-0.063,0.309-0.118,0.59-0.154,0.844c-0.036,0.254-0.046,0.409-0.046,0.454
			c0.037,0.708,0.336,1.334,0.888,1.887s1.159,1.179,1.821,1.869c0.66,0.699,1.285,1.552,1.865,2.558
			c0.57,1.007,0.906,2.314,0.994,3.929c0.064,1.161-0.008,2.341-0.197,3.539c-0.201,1.198-0.416,2.359-0.654,3.484
			c-0.234,1.125-0.451,2.187-0.658,3.184c-0.211,0.999-0.291,1.897-0.246,2.705c0.045,0.908,0.227,1.506,0.535,1.788
			c0.316,0.289,0.66,0.425,1.059,0.398c0.779-0.037,1.574-0.464,2.391-1.262c0.805-0.808,1.566-1.795,2.271-2.967
			c0.625-1.034,1.178-2.141,1.676-3.303C110.135,49.49,110.117,49.617,110.098,49.735z"/>
		<path fill="#FFFFFF" d="M133.184,3.582c0.027,0.504-0.064,1.117-0.27,1.835c-0.209,0.72-0.459,1.492-0.76,2.316
			c-0.301,0.826-0.623,1.652-0.971,2.48c-0.35,0.828-0.652,1.603-0.91,2.325c-0.273-0.238-0.512-0.528-0.709-0.872
			c-0.199-0.342-0.309-0.742-0.336-1.195c-0.008-0.151,0.014-0.38,0.064-0.686c0.152-0.768,0.367-1.511,0.639-2.234
			c0.271-0.723,0.537-1.433,0.793-2.129c0.258-0.697,0.492-1.366,0.703-2.01c0.213-0.643,0.35-1.271,0.414-1.88
			c0.328-0.018,0.625,0.181,0.895,0.596C133.002,2.543,133.152,3.028,133.184,3.582z"/>
	</g>
	<g>
		<path fill="#FFFFFF" d="M149.992,42.939c-0.797,2.931-1.666,5.044-2.609,6.36c-0.941,1.315-1.982,2.159-3.104,2.522
			c0.137-1.117,0.162-2.359,0.09-3.72c-0.09-1.715-0.316-3.393-0.67-5.044s-0.734-3.239-1.141-4.754
			c-0.408-1.525-0.779-2.967-1.113-4.337c-0.344-1.37-0.545-2.694-0.617-3.946c-0.045-0.862-0.035-1.57,0.037-2.132
			c0.072-0.554,0.1-0.962,0.082-1.216c-0.037-0.653-0.318-0.971-0.842-0.943c-0.453,0.027-0.871,0.445-1.232,1.243
			c-0.371,0.808-0.498,2.142-0.398,4.011l0.055,0.907c-0.516,2.051-1.131,4.001-1.848,5.861c-0.725,1.86-1.521,3.647-2.416,5.362
			c-0.119,0.263-0.346,0.49-0.67,0.68c-0.154,0.091-0.299,0.2-0.453,0.336c-0.174,0.146-0.344,0.327-0.518,0.544c0,0,0,0,0,0.009
			c-0.018,0.009-0.037,0.028-0.045,0.046c-0.334,0.417-0.615,1.043-0.852,1.86c-0.098,0.363-0.17,0.798-0.217,1.306v0.009
			c-0.053,0.626-0.062,1.352-0.018,2.187c0.018,0.281,0.037,0.571,0.064,0.852c0.09,0.872,0.234,1.743,0.443,2.613
			c0.279,1.144,0.68,2.187,1.203,3.122c0.525,0.925,1.195,1.679,2.02,2.241c0.814,0.562,1.793,0.808,2.934,0.744
			c1.402-0.072,2.645-0.645,3.721-1.715c1.068-1.071,1.811-2.705,2.219-4.899c1.449-0.436,2.752-1.397,3.92-2.905
			c1.168-1.506,1.982-3.666,2.453-6.468L149.992,42.939z M140.422,55.179c-0.234,0.5-0.49,0.871-0.77,1.144
			c-0.281,0.271-0.562,0.446-0.834,0.535c-0.271,0.091-0.506,0.145-0.705,0.154c-0.652,0.037-1.232-0.146-1.748-0.544
			c-0.516-0.409-0.959-0.935-1.34-1.597c-0.379-0.663-0.678-1.434-0.914-2.306c-0.227-0.87-0.363-1.76-0.408-2.667
			c-0.1-1.715,0.217-2.622,0.932-2.704c0.59,1.279,1.459,2.513,2.582,3.683c1.133,1.181,2.391,1.933,3.785,2.259
			C140.855,54.01,140.656,54.689,140.422,55.179z M141.182,51.914c-1.529-0.419-2.852-1.307-3.955-2.668
			c-1.105-1.353-1.947-2.822-2.518-4.41c0.688-1.198,1.395-2.694,2.137-4.482c0.742-1.778,1.43-3.648,2.082-5.607
			c0.371,2.104,0.814,4.291,1.312,6.56c0.498,2.277,0.814,4.627,0.951,7.041c0.035,0.762,0.055,1.415,0.055,1.968
			C141.246,50.878,141.219,51.405,141.182,51.914z"/>
	</g>
</g>
<g>
	<path fill="#FFFFFF" d="M70.637,89.962h1.203c2.869,0,5.162-0.354,6.88-1.064c0.302,0.558,0.453,1.136,0.453,1.733
		c0,0.446-0.137,0.773-0.411,0.981c-0.273,0.208-0.831,0.312-1.67,0.312l-11.297,0.016c-0.123-0.345-0.184-0.67-0.184-0.974
		c0-0.203,0.05-0.353,0.149-0.449c0.099-0.096,0.262-0.144,0.488-0.144h1.047c0.066-1.42,0.099-5.039,0.099-10.859
		c0-3.112-0.038-5.373-0.113-6.782h-1.486c-0.123-0.345-0.184-0.664-0.184-0.958c0-0.213,0.05-0.368,0.149-0.464
		c0.099-0.097,0.262-0.145,0.488-0.145h6.13c0.123,0.304,0.184,0.598,0.184,0.882c0,0.254-0.047,0.431-0.142,0.532
		c-0.095,0.102-0.265,0.152-0.51,0.152h-1.274c-0.066,1.409-0.099,3.731-0.099,6.965C70.538,85.395,70.57,88.816,70.637,89.962z"/>
	<path fill="#FFFFFF" d="M85.388,90.357h1.5c0.123,0.264,0.184,0.548,0.184,0.852c0,0.273-0.052,0.462-0.156,0.562
		c-0.104,0.102-0.307,0.152-0.609,0.152h-5.563c-0.113-0.324-0.17-0.629-0.17-0.912c0-0.224,0.05-0.388,0.149-0.495
		c0.099-0.106,0.271-0.159,0.517-0.159h1.048c0.066-1.409,0.099-3.062,0.099-4.958c0-2.312-0.017-3.855-0.049-4.631
		c-0.033-0.775-0.111-1.311-0.233-1.604c-0.123-0.294-0.295-0.477-0.517-0.547c-0.222-0.071-0.498-0.106-0.828-0.106
		c-0.123-0.213-0.184-0.462-0.184-0.746c0-0.415,0.184-0.669,0.552-0.76c0.368-0.092,1.081-0.137,2.138-0.137
		c0.746,0,1.25,0.038,1.515,0.113c0.264,0.076,0.416,0.219,0.453,0.426c0.038,0.208,0.057,0.565,0.057,1.072v6.92
		C85.289,87.296,85.321,88.948,85.388,90.357z M83.377,74.268c-0.614,0-1.066-0.138-1.359-0.411
		c-0.293-0.273-0.439-0.669-0.439-1.187c0.009-0.557,0.198-1.003,0.566-1.338c0.368-0.335,0.887-0.502,1.557-0.502
		c0.66,0,1.132,0.145,1.416,0.434s0.425,0.677,0.425,1.163c0,0.548-0.175,0.991-0.524,1.331S84.123,74.268,83.377,74.268z"/>
	<path fill="#FFFFFF" d="M95.496,76.64c1.246,0,2.234,0.129,2.966,0.388s1.097,0.677,1.097,1.255c0,0.599-0.236,1.191-0.708,1.779
		c-1.85-0.923-3.312-1.384-4.388-1.384c-0.727,0-1.272,0.146-1.635,0.44c-0.363,0.295-0.545,0.721-0.545,1.278
		c0,0.577,0.205,1.055,0.616,1.429c0.411,0.376,1.253,0.816,2.527,1.323c1.604,0.608,2.747,1.24,3.426,1.894
		c0.68,0.654,1.02,1.554,1.02,2.699c0,1.45-0.519,2.561-1.557,3.331c-1.039,0.771-2.516,1.155-4.431,1.155
		c-1.463,0-2.579-0.111-3.348-0.334s-1.154-0.689-1.154-1.399c0-0.517,0.184-1.023,0.552-1.521c1.614,0.812,3.114,1.217,4.502,1.217
		c0.868,0,1.515-0.152,1.939-0.457c0.424-0.304,0.637-0.79,0.637-1.46c0-0.72-0.323-1.29-0.97-1.711
		c-0.646-0.42-1.659-0.92-3.037-1.497c-1.359-0.558-2.298-1.146-2.817-1.765s-0.779-1.404-0.779-2.357
		c0-1.287,0.515-2.326,1.543-3.117C91.98,77.035,93.495,76.64,95.496,76.64z"/>
	<path fill="#FFFFFF" d="M103.055,77.02h0.963l1.146-4.318c0.396,0.132,0.734,0.289,1.013,0.471
		c0.278,0.183,0.483,0.398,0.616,0.646c0.132,0.249,0.197,1.108,0.197,2.578v0.623h4.658c0.113,0.335,0.17,0.69,0.17,1.064
		c0,0.295-0.053,0.49-0.156,0.586c-0.104,0.097-0.311,0.145-0.623,0.145h-4.049v7.193c0,1.714,0.146,2.842,0.439,3.384
		c0.293,0.543,0.733,0.829,1.324,0.859c0.589,0.03,1.313-0.178,2.172-0.624c0.208,0.335,0.312,0.7,0.312,1.096
		c0,0.537-0.277,0.897-0.828,1.079c-0.553,0.183-1.424,0.274-2.612,0.274c-1.294,0-2.235-0.284-2.824-0.852
		c-0.591-0.568-0.886-1.628-0.886-3.179v-3.574c0-1.946-0.051-3.832-0.154-5.657h-1.389c-0.113-0.365-0.17-0.72-0.17-1.064
		c0-0.254,0.053-0.438,0.156-0.556C102.635,77.078,102.81,77.02,103.055,77.02z"/>
	<path fill="#FFFFFF" d="M120.553,76.64c1.756,0,3.059,0.446,3.906,1.338c0.85,0.893,1.275,2.363,1.275,4.411
		c0,0.902-0.152,1.53-0.453,1.886c-0.303,0.354-0.963,0.532-1.982,0.532h-6.258c0.02,1.652,0.328,2.95,0.928,3.894
		c0.6,0.942,1.658,1.414,3.178,1.414c1.416,0,2.732-0.396,3.951-1.187c0.404,0.437,0.607,0.897,0.607,1.384
		c0,0.68-0.521,1.156-1.564,1.43s-2.219,0.411-3.531,0.411c-2.416,0-4.15-0.55-5.203-1.65c-1.053-1.1-1.578-2.953-1.578-5.559
		c0-2.565,0.592-4.59,1.777-6.075C116.789,77.383,118.438,76.64,120.553,76.64z M120.016,78.678c-0.945,0-1.662,0.362-2.152,1.087
		c-0.49,0.726-0.76,1.858-0.807,3.399h1.457c1.549,0,2.604-0.033,3.164-0.099c0.562-0.066,0.887-0.175,0.977-0.327
		s0.135-0.436,0.135-0.852c0-1.004-0.236-1.79-0.707-2.357C121.609,78.962,120.92,78.678,120.016,78.678z"/>
	<path fill="#FFFFFF" d="M132.416,78.662c0.934-0.669,1.857-1.16,2.768-1.475s1.725-0.472,2.441-0.472
		c1.256,0,2.201,0.312,2.84,0.936c0.637,0.623,0.955,1.812,0.955,3.566c0,5.454,0.072,8.344,0.219,8.668
		c0.146,0.325,0.484,0.481,1.012,0.472c0.105,0.294,0.156,0.588,0.156,0.882c0,0.274-0.08,0.456-0.24,0.548
		c-0.16,0.091-0.457,0.137-0.893,0.137c-1.311,0-2.113-0.018-2.406-0.054c-0.293-0.035-0.49-0.142-0.594-0.319
		c-0.104-0.177-0.156-0.474-0.156-0.89v-6.555c0-2.088-0.205-3.477-0.615-4.167c-0.41-0.688-1.074-1.034-1.99-1.034
		c-0.783,0-1.459,0.239-2.031,0.715c-0.57,0.477-0.855,1.334-0.855,2.57v3.209c0,1.795,0.033,3.447,0.098,4.958h1.572
		c0.113,0.264,0.17,0.548,0.17,0.852c0,0.273-0.053,0.462-0.156,0.562c-0.104,0.102-0.301,0.152-0.594,0.152h-5.564
		c-0.123-0.324-0.184-0.629-0.184-0.912c0-0.224,0.053-0.388,0.156-0.495c0.104-0.106,0.273-0.159,0.51-0.159h0.977
		c0.074-1.612,0.113-3.589,0.113-5.932c0-2.99-0.109-4.724-0.326-5.201c-0.217-0.476-0.633-0.714-1.246-0.714
		c-0.123-0.284-0.184-0.578-0.184-0.883c0-0.273,0.1-0.448,0.297-0.524c0.199-0.076,1.449-0.154,3.752-0.235
		C132.473,77.334,132.473,77.933,132.416,78.662z"/>
	<path fill="#FFFFFF" d="M150.012,90.357h1.502c0.123,0.264,0.184,0.548,0.184,0.852c0,0.273-0.053,0.462-0.156,0.562
		c-0.104,0.102-0.307,0.152-0.607,0.152h-5.564c-0.113-0.324-0.17-0.629-0.17-0.912c0-0.224,0.049-0.388,0.148-0.495
		c0.1-0.106,0.271-0.159,0.518-0.159h1.047c0.066-1.409,0.1-3.062,0.1-4.958c0-2.312-0.018-3.855-0.051-4.631
		c-0.031-0.775-0.109-1.311-0.232-1.604s-0.295-0.477-0.518-0.547c-0.221-0.071-0.498-0.106-0.828-0.106
		c-0.123-0.213-0.184-0.462-0.184-0.746c0-0.415,0.184-0.669,0.553-0.76c0.367-0.092,1.08-0.137,2.137-0.137
		c0.746,0,1.25,0.038,1.516,0.113c0.264,0.076,0.414,0.219,0.453,0.426c0.037,0.208,0.057,0.565,0.057,1.072v6.92
		C149.914,87.296,149.947,88.948,150.012,90.357z M148.002,74.268c-0.613,0-1.066-0.138-1.359-0.411
		c-0.291-0.273-0.438-0.669-0.438-1.187c0.008-0.557,0.197-1.003,0.566-1.338c0.367-0.335,0.887-0.502,1.557-0.502
		c0.66,0,1.133,0.145,1.416,0.434s0.424,0.677,0.424,1.163c0,0.548-0.174,0.991-0.523,1.331S148.748,74.268,148.002,74.268z"/>
	<path fill="#FFFFFF" d="M158.012,78.662c0.934-0.669,1.855-1.16,2.768-1.475c0.91-0.314,1.725-0.472,2.441-0.472
		c1.254,0,2.201,0.312,2.838,0.936c0.637,0.623,0.955,1.812,0.955,3.566c0,5.454,0.074,8.344,0.221,8.668
		c0.146,0.325,0.482,0.481,1.012,0.472c0.104,0.294,0.156,0.588,0.156,0.882c0,0.274-0.08,0.456-0.242,0.548
		c-0.16,0.091-0.457,0.137-0.891,0.137c-1.312,0-2.115-0.018-2.406-0.054c-0.293-0.035-0.492-0.142-0.596-0.319
		c-0.104-0.177-0.154-0.474-0.154-0.89v-6.555c0-2.088-0.207-3.477-0.617-4.167c-0.41-0.688-1.074-1.034-1.988-1.034
		c-0.783,0-1.461,0.239-2.031,0.715c-0.572,0.477-0.857,1.334-0.857,2.57v3.209c0,1.795,0.033,3.447,0.1,4.958h1.572
		c0.111,0.264,0.168,0.548,0.168,0.852c0,0.273-0.051,0.462-0.154,0.562c-0.104,0.102-0.303,0.152-0.596,0.152h-5.562
		c-0.123-0.324-0.184-0.629-0.184-0.912c0-0.224,0.051-0.388,0.154-0.495c0.104-0.106,0.273-0.159,0.51-0.159h0.977
		c0.076-1.612,0.113-3.589,0.113-5.932c0-2.99-0.107-4.724-0.324-5.201c-0.219-0.476-0.633-0.714-1.246-0.714
		c-0.123-0.284-0.184-0.578-0.184-0.883c0-0.273,0.098-0.448,0.297-0.524c0.197-0.076,1.447-0.154,3.752-0.235
		C158.068,77.334,158.068,77.933,158.012,78.662z"/>
	<path fill="#FFFFFF" d="M181.582,78.389c0.527,1.014,0.793,2.094,0.793,3.239c0,1.714-0.514,3.098-1.537,4.151
		c-1.023,1.055-2.635,1.582-4.834,1.582c-0.99,0-1.633,0.114-1.926,0.342c-0.293,0.229-0.439,0.561-0.439,0.997
		c0,0.526,0.199,0.907,0.596,1.14c0.396,0.233,1.846,0.351,4.346,0.351c2.463,0,4.061,0.271,4.793,0.813
		c0.73,0.542,1.096,1.346,1.096,2.41c0,1.602-0.775,2.869-2.328,3.802c-1.553,0.934-3.957,1.399-7.213,1.399
		c-1.586,0-2.646-0.23-3.186-0.691c-0.537-0.462-0.807-1.108-0.807-1.939c0-0.618,0.15-1.25,0.453-1.894s0.723-1.265,1.26-1.863
		c-0.463-0.202-0.832-0.504-1.111-0.904c-0.277-0.4-0.418-0.895-0.418-1.483c0-0.607,0.18-1.168,0.539-1.68
		c0.357-0.512,0.906-0.961,1.643-1.347c-0.605-0.263-1.094-0.734-1.467-1.414c-0.373-0.679-0.559-1.566-0.559-2.661
		c0-1.784,0.51-3.247,1.529-4.388s2.553-1.711,4.6-1.711c1.133,0,2.176,0.198,3.129,0.593c1.227-0.598,1.959-0.896,2.195-0.896
		c1.141,0,1.764,0.032,1.869,0.099c0.104,0.065,0.154,0.175,0.154,0.327c0,0.264-0.111,0.641-0.332,1.133
		c-0.223,0.492-0.43,0.737-0.623,0.737s-0.818-0.228-1.875-0.685L181.582,78.389z M174.475,92.38
		c-0.33,0.354-0.582,0.755-0.758,1.201c-0.174,0.446-0.262,0.897-0.262,1.354c0,0.689,0.193,1.187,0.58,1.491
		c0.389,0.304,1.162,0.456,2.322,0.456c1.699,0,2.98-0.219,3.844-0.654s1.295-1.069,1.295-1.9c0-0.73-0.316-1.237-0.947-1.521
		C179.916,92.521,177.891,92.38,174.475,92.38z M176.768,78.373c-0.896,0-1.561,0.271-1.996,0.814
		c-0.434,0.542-0.65,1.523-0.65,2.942c0,1.217,0.209,2.104,0.629,2.661s1.078,0.837,1.977,0.837c0.953,0,1.656-0.251,2.109-0.753
		c0.451-0.502,0.678-1.447,0.678-2.837c0-1.227-0.229-2.144-0.686-2.752S177.684,78.373,176.768,78.373z"/>
</g>
</svg>
