<?xml version="1.0" encoding="utf-8"?>
<!-- Generator: Adobe Illustrator 15.0.0, SVG Export Plug-In . SVG Version: 6.00 Build 0)  -->
<!DOCTYPE svg PUBLIC "-//W3C//DTD SVG 1.1//EN" "http://www.w3.org/Graphics/SVG/1.1/DTD/svg11.dtd">
<svg version="1.1" id="Layer_1" xmlns="http://www.w3.org/2000/svg" xmlns:xlink="http://www.w3.org/1999/xlink" x="0px" y="0px"
	 width="200px" height="300px" viewBox="0 0 200 300" enable-background="new 0 0 200 300" xml:space="preserve">
<g>
	<path fill-rule="evenodd" clip-rule="evenodd" fill="#C89578" d="M54.91,74.587c-7.694,0.717-12.801,5.87-14.325,11.924
		c-5.398,21.457,2.396,67.302,0,100.157C38.397,216.711,29.483,239.088,0,239.131c0,0.797,0,1.59,0,2.385
		c51.803,3.045,45.256-79.76,42.973-129.966c-0.794-17.466-3.211-35.008,11.937-34.578C54.91,76.177,54.91,75.382,54.91,74.587z"/>
	<path fill-rule="evenodd" clip-rule="evenodd" fill="#FAC2A6" d="M128.92,81.741c-2.36,3.996,5.1,8.384,11.937,7.154
		C136.876,86.512,130.296,86.727,128.92,81.741z"/>
	<path fill-rule="evenodd" clip-rule="evenodd" fill="#FAC2A6" d="M60.878,85.318c-0.397,0-0.794,0-1.193,0c0,0.794,0,1.59,0,2.385
		C67.584,86.479,74.461,85.054,60.878,85.318z"/>
	<path fill-rule="evenodd" clip-rule="evenodd" fill="#C89578" d="M122.952,91.28c-1.563,12.39,20.872,14.77,22.679,3.577
		C137.61,98.573,130.117,92.306,122.952,91.28z"/>
	<path fill-rule="evenodd" clip-rule="evenodd" fill="#FAC2A6" d="M146.825,112.742c-4.173,1.44-13.877,2.22-17.905,0
		c0,1.192,0,2.385,0,3.577c6.185,2.151,12.07,0.2,17.905-1.192C146.825,114.333,146.825,113.537,146.825,112.742z"/>
	<path fill-rule="evenodd" clip-rule="evenodd" fill="#FEE1AC" d="M146.825,115.127c-5.835,1.392-11.721,3.344-17.905,1.192
		c0,3.179,0,6.359,0,9.539c1.881,11.236,5.535,20.704,7.162,32.192c5.387-8.928,7.395-21.229,10.743-32.192
		C146.825,122.281,146.825,118.704,146.825,115.127z"/>
	<path fill-rule="evenodd" clip-rule="evenodd" fill="#F8F5E4" d="M149.213,125.858c-0.795,0-1.591,0-2.388,0
		c-3.349,10.964-5.356,23.265-10.743,32.192c-1.627-11.489-5.281-20.956-7.162-32.192c-0.795,0-1.591,0-2.388,0
		c-0.52,6.015-5.76,16.861,2.388,17.885c-5.015,8.183,4.286,11.038,7.162,17.885c3.673-3.99,13.624-9.986,8.355-15.501
		c0.826-2.355,3.185-3.179,5.969-3.577C151.265,135.732,149.133,131.9,149.213,125.858z"/>
	<path fill-rule="evenodd" clip-rule="evenodd" fill="#FAC2A6" d="M136.082,258.209c-2.723,1.654-0.445,8.301-1.194,11.924
		C137.61,268.479,135.333,261.832,136.082,258.209z"/>
	<path fill-rule="evenodd" clip-rule="evenodd" fill="#F8F5E4" d="M151.601,274.902c-2.905,3.207-9.531,0.049-13.13,0
		c0,1.988,0,3.975,0,5.961c7.012,0.768,16.913,7.895,22.68,2.385C159.93,278.504,155.705,276.764,151.601,274.902z"/>
	<path fill-rule="evenodd" clip-rule="evenodd" fill="#C89578" d="M99.077,63.856c1.988,0,3.979,0,5.968,0c0-1.987,0-3.975,0-5.962
		c3.24-0.738,9.475,1.514,10.744-1.192c-3.58,0-7.163,0-10.744,0c-1.001,1.384-1.574,3.197-1.192,5.962c-1.592,0-3.184,0-4.775,0
		C99.077,63.061,99.077,63.458,99.077,63.856z"/>
	<path fill-rule="evenodd" clip-rule="evenodd" fill="#FEE1AC" d="M165.925,100.819c7.596-23.452,1.323-49.356-10.744-63.195
		c-9.693,9.792-20.61,18.364-39.392,19.078c-1.27,2.706-7.504,0.454-10.744,1.192c0,1.987,0,3.975,0,5.962c-1.988,0-3.979,0-5.968,0
		c-1.568,0.421-1.877,2.099-3.581,2.385c-0.236,8.184,4.099,11.803,9.549,14.308c-0.244,7.796,1.342,13.764,3.581,19.078
		c5.021,6.114,10.035,12.234,20.294,13.116c4.028,2.22,13.732,1.44,17.905,0C156.023,111.596,160.165,105.399,165.925,100.819z
		 M156.375,62.664c0.005,4.774-0.627,8.913-5.969,8.346c-3.091-3.755,0.443-15.967,3.581-9.539
		C152.066,61.846,154.078,63.168,156.375,62.664z M119.37,72.202c-1.04-2.955-2.331-9.245,0-11.923
		c1.405,0.187,3.388-0.205,3.582,1.192C123.104,61.48,126.754,73.259,119.37,72.202z M140.856,88.895
		c-6.837,1.23-14.297-3.158-11.937-7.154C130.296,86.727,136.876,86.512,140.856,88.895z M145.631,94.857
		c-1.807,11.192-24.242,8.813-22.679-3.577C130.117,92.306,137.61,98.573,145.631,94.857z"/>
	<path fill-rule="evenodd" clip-rule="evenodd" fill="#705037" d="M122.952,61.471c-0.194-1.397-2.177-1.005-3.582-1.192
		c-2.331,2.679-1.04,8.969,0,11.923C126.754,73.259,123.104,61.48,122.952,61.471z"/>
	<path fill-rule="evenodd" clip-rule="evenodd" fill="#FAC2A6" d="M149.213,125.858c-0.08,6.042,2.052,9.874,1.193,16.693
		c-2.784,0.398-5.143,1.222-5.969,3.577c5.269,5.515-4.683,11.511-8.355,15.501c-2.876-6.848-12.177-9.702-7.162-17.885
		c-8.147-1.024-2.907-11.871-2.388-17.885c-3.74,2.227-11.089,0.847-13.131,4.769c0.788,4.156,1.368,6.931,1.193,14.309
		c0.96-0.631,1.938-1.245,3.581-1.192c10.413,32.295-0.338,57.35-7.161,87.042c3.991,1.578,9.673,1.465,13.129,3.576
		c3.384,1.789,9.014,1.332,11.938,3.578c-1.541-4.658,3.929-4.658,2.389,0c3.384-1.785,7.855-2.486,11.936-3.578
		c2.797-3.168,9.981-1.953,13.131-4.768c-2.594-24.217-17.883-51.648-4.774-73.928c1.605-6.345,1.213-14.684,3.581-20.269
		c-1.383-4.03,0.844-5.087-1.193-7.154C156.845,127.774,153.145,126.699,149.213,125.858z"/>
	<path fill-rule="evenodd" clip-rule="evenodd" fill="#FAC2A6" d="M89.527,56.702c0.749,3.625-1.529,10.271,1.194,11.924
		C89.974,65.001,92.249,58.354,89.527,56.702z"/>
	<path fill-rule="evenodd" clip-rule="evenodd" fill="#F8F5E4" d="M87.14,85.318c1.592,0,3.183,0,4.775,0
		c-0.519-5.444,1.208-13.129-1.193-16.693c-2.724-1.653-0.446-8.299-1.194-11.924c0.219-1.014-0.465-1.125-1.193-1.192
		c-10.489,3.833-23.235,5.407-34.617,8.347c-0.37,4.343,0.19,7.759,1.192,10.731c0,0.795,0,1.59,0,2.385
		c0.002,4.371-0.463,9.208,4.775,8.347c0.399,0,0.796,0,1.193,0c2.761-2.677,11.243-0.956,14.324,0
		c1.205-2.375,2.063-5.093,4.775-5.962c2.589-0.201,0.542,4.229,1.195,5.962C83.161,85.318,85.151,85.318,87.14,85.318z"/>
	<path fill-rule="evenodd" clip-rule="evenodd" fill="#FEE1AC" d="M59.685,87.703c2.083,21.774-3.623,44.761,8.355,57.233
		c10.324,10.748,32.575,8.369,46.555,0c0.175-7.378-0.405-10.153-1.193-14.309c-9.415,3.711-17.766,8.485-32.229,7.154
		c-3.571-2.114-5.859-5.69-7.165-10.045c-4.032-13.431,1.276-34.264,7.165-42.418c-0.653-1.733,1.394-6.163-1.195-5.962
		c-2.712,0.869-3.57,3.587-4.775,5.962c-3.081-0.956-11.563-2.677-14.324,0C74.461,85.054,67.584,86.479,59.685,87.703z"/>
	<path fill-rule="evenodd" clip-rule="evenodd" fill="#FEE1AC" d="M158.763,155.666c2.158,17.893,12.709,36.822,7.162,54.85
		c6.645-3.91,1.328,10.314,10.743,7.154c7.729-12.316,0.733-29.705-2.387-42.926c-3.392-14.361-6.654-28.702-11.938-39.347
		C159.976,140.982,160.368,149.321,158.763,155.666z"/>
	<path fill-rule="evenodd" clip-rule="evenodd" fill="#FEE1AC" d="M124.144,234.361c-0.56,13.678,0.565,25.67,1.195,38.156
		c-0.328,2.455-4.446,1.123-4.774,3.576c5.133,1.512,10.407,1.396,14.323-1.191c0-1.59,0-3.18,0-4.77
		c0.749-3.623-1.528-10.27,1.194-11.924c0-6.756,0-13.512,0-20.27C133.157,235.693,127.527,236.15,124.144,234.361z"/>
	<path fill-rule="evenodd" clip-rule="evenodd" fill="#FEE1AC" d="M151.601,274.902c-6.133-10.223,1.029-26.412-1.194-40.541
		c-4.08,1.092-8.552,1.793-11.936,3.578c0,12.32,0,24.643,0,36.963C142.069,274.951,148.695,278.109,151.601,274.902z"/>
	<path fill-rule="evenodd" clip-rule="evenodd" fill="#F8F5E4" d="M120.564,276.094c-4.291,0.881-7.979,2.365-7.163,8.348
		c8.827,0.471,15.959-0.752,21.486-3.578c0-1.986,0-3.973,0-5.961C130.972,277.49,125.697,277.605,120.564,276.094z"/>
	<path fill-rule="evenodd" clip-rule="evenodd" fill="#7F5D3E" d="M165.925,100.819c-0.313,5.286-5.749,11.696-3.581,15.5
		c17.2,4.615,16.215-14.77,27.455-5.962c-7.973-35.408,3.149-78.463-23.874-93.003c-6.413-3.451-19.896-10.023-27.454-10.731
		c-26.901-2.517-48.996,18.716-50.136,48.886c0.728,0.068,1.412,0.178,1.193,1.192c2.722,1.653,0.446,8.299,1.194,11.924
		c2.401,3.563,0.675,11.249,1.193,16.693c-1.592,0-3.183,0-4.775,0c-0.914,15.519-1.318,30.529,8.248,35.581
		c3.188,1.684,7.484,2.261,13.238,1.382c1.669-3.426-3.252-6.058,0-7.154c-0.037,3.941,9.76,5.539,10.744,1.192
		c-5.25-3.898-8.583-9.709-10.744-16.693c-2.239-5.314-3.825-11.281-3.581-19.078c-5.45-2.505-9.785-6.124-9.549-14.308
		c1.704-0.286,2.013-1.964,3.581-2.385c0-0.398,0-0.795,0-1.192c1.592,0,3.184,0,4.775,0c-0.382-2.765,0.191-4.578,1.192-5.962
		c3.581,0,7.164,0,10.744,0c18.781-0.714,29.698-9.286,39.392-19.078C167.248,51.462,173.521,77.367,165.925,100.819z"/>
	<path fill-rule="evenodd" clip-rule="evenodd" fill="#724F31" d="M153.987,61.471c-3.138-6.428-6.672,5.784-3.581,9.539
		c5.342,0.567,5.974-3.572,5.969-8.346C154.078,63.168,152.066,61.846,153.987,61.471z"/>
</g>
</svg>
